<svg xmlns="http://www.w3.org/2000/svg" viewBox="0 0 147.22 59.05"><defs><style>.cls-1{fill:#231f20;}</style></defs><title>Logo_Vert_Black_CMYK_Stewart_2016CMYK</title><g id="Layer_2" data-name="Layer 2"><g id="Layer_1-2" data-name="Layer 1"><path class="cls-1" d="M9.37,4.37a3.23,3.23,0,0,0-3-1.77c-1.5,0-3.15,1-3.15,2.67C3.2,6.75,4.65,7.52,5.82,8l1.35.52c2.67,1,4.67,2.52,4.67,5.67a5.81,5.81,0,0,1-6,5.87A5.87,5.87,0,0,1,0,14.77l2.37-.5a3.56,3.56,0,1,0,7.12-.1c0-2-1.62-2.9-3.25-3.57L4.95,10C2.8,9.12.85,7.9.85,5.27.85,2.22,3.55.4,6.4.4a5.38,5.38,0,0,1,4.85,2.85Z"/><path class="cls-1" d="M27,19.65H24.65V2.95H20.17V.8h11.3V2.95H27Z"/><path class="cls-1" d="M40.82.8H50.95V2.95H43.17V8.22h7.55v2.15H43.17V17.5h7.77v2.15H40.82Z"/><path class="cls-1" d="M67.07,14.3,72.4.4l5.32,13.9L83,.8h2.55L77.72,20.4,72.4,6.57,67.07,20.4,59.25.8H61.8Z"/><path class="cls-1" d="M94.7,14.92l-2.15,4.72H90L99,0l9,19.65H105.5l-2.15-4.72ZM99,5.15l-3.35,7.62h6.7Z"/><path class="cls-1" d="M128.82,19.65H126l-5.55-8h-1v8H117.1V.8h2.85a10,10,0,0,1,5,.88,5.22,5.22,0,0,1,2.47,4.5,5.13,5.13,0,0,1-4.52,5.27Zm-9.37-9.92h.75c2.4,0,5-.45,5-3.45s-2.8-3.37-5.12-3.37h-.62Z"/><path class="cls-1" d="M142.75,19.65H140.4V2.95h-4.47V.8h11.3V2.95h-4.47Z"/><path class="cls-1" d="M35.35,47.4V39.8H37.7V58.65H35.35v-9h-9v9H24V39.8h2.35v7.6Z"/><path class="cls-1" d="M67,49.22a9.87,9.87,0,0,1-19.75,0,9.87,9.87,0,0,1,19.75,0Zm-2.35,0a7.52,7.52,0,1,0-15,0,7.52,7.52,0,1,0,15,0Z"/><path class="cls-1" d="M81.87,58.65H79.52V41.95H75V39.8h11.3v2.15H81.87Z"/><path class="cls-1" d="M95.7,39.8h10.12v2.15H98v5.27h7.55v2.15H98V56.5h7.77v2.15H95.7Z"/><path class="cls-1" d="M118.57,56.5h5.72v2.15h-8.07V39.8h2.35Z"/></g></g></svg>