<svg xmlns="http://www.w3.org/2000/svg" viewBox="0 0 475.66 35.76"><defs><style>.cls-1{fill:#fff;}</style></defs><title>Logo_White_Black_CMYK_Stewart_2016CMYK</title><g id="Layer_2" data-name="Layer 2"><g id="Layer_1-2" data-name="Layer 1"><path class="cls-1" d="M16.43,7.67a5.66,5.66,0,0,0-5.3-3.11c-2.63,0-5.52,1.8-5.52,4.69,0,2.59,2.54,3.94,4.6,4.73l2.37.92c4.69,1.84,8.19,4.43,8.19,9.95a10.19,10.19,0,0,1-10.56,10.3A10.3,10.3,0,0,1,0,25.9L4.16,25a6.25,6.25,0,1,0,12.49-.18c0-3.55-2.85-5.08-5.7-6.27l-2.28-1C4.91,16,1.49,13.85,1.49,9.25,1.49,3.9,6.22.7,11.22.7a9.43,9.43,0,0,1,8.5,5Z"/><path class="cls-1" d="M47.33,34.45H43.21V5.17H35.36V1.4H55.17V5.17H47.33Z"/><path class="cls-1" d="M71.56,1.4H89.31V5.17H75.68v9.25H88.91v3.77H75.68V30.68H89.31v3.77H71.56Z"/><path class="cls-1" d="M117.57,25.07,126.9.7l9.33,24.37L145.48,1.4H150L136.24,35.76,126.9,11.53l-9.33,24.23L103.85,1.4h4.47Z"/><path class="cls-1" d="M166,26.16l-3.77,8.28h-4.43L173.57,0l15.78,34.45h-4.43l-3.77-8.28ZM173.57,9,167.7,22.39h11.74Z"/><path class="cls-1" d="M225.8,34.45h-5l-9.73-14h-1.71v14h-4.12V1.4h5c2.94,0,6.09,0,8.72,1.53a9.15,9.15,0,0,1,4.34,7.89,9,9,0,0,1-7.93,9.25ZM209.37,17h1.31c4.21,0,8.76-.79,8.76-6s-4.91-5.92-9-5.92h-1.1Z"/><path class="cls-1" d="M250.21,34.45h-4.12V5.17h-7.84V1.4h19.81V5.17h-7.84Z"/><path class="cls-1" d="M319.75,14.72V1.4h4.12v33h-4.12V18.58H304V34.45H299.9V1.4H304V14.72Z"/><path class="cls-1" d="M375.27,17.92a17.31,17.31,0,0,1-34.62,0,17.31,17.31,0,0,1,34.62,0Zm-4.12,0a13.19,13.19,0,1,0-26.38,0,13.19,13.19,0,1,0,26.38,0Z"/><path class="cls-1" d="M401.3,34.45h-4.12V5.17h-7.84V1.4h19.81V5.17H401.3Z"/><path class="cls-1" d="M425.53,1.4h17.75V5.17H429.65v9.25h13.24v3.77H429.65V30.68h13.63v3.77H425.53Z"/><path class="cls-1" d="M465.63,30.68h10v3.77H461.51V1.4h4.12Z"/></g></g></svg>